<svg width="964" height="816" xmlns="http://www.w3.org/2000/svg" xmlns:xlink="http://www.w3.org/1999/xlink" overflow="hidden"><defs><clipPath id="clip0"><rect x="2258" y="204" width="964" height="816"/></clipPath></defs><g clip-path="url(#clip0)" transform="translate(-2258 -204)"><path d="M0 100.669C-1.51185e-14 45.0709 45.0708 0 100.668 0L158.333 0 158.333 0 395.833 0 849.332 0C904.929-1.51185e-14 950 45.0709 950 100.669L950 352.334 950 352.334 950 503.333 950 503.331C950 558.929 904.929 604 849.332 604L395.833 604 53.5611 791.162 158.333 604 100.668 604C45.0708 604 0 558.929 0 503.331L0 503.333 0 352.334 0 352.334Z" stroke="#000000" stroke-width="13.75" stroke-miterlimit="8" fill="#FFFFFF" fill-rule="evenodd" transform="matrix(-1 0 0 1 3215 211)"/></g></svg>