<svg width="963" height="818" xmlns="http://www.w3.org/2000/svg" xmlns:xlink="http://www.w3.org/1999/xlink" overflow="hidden"><defs><clipPath id="clip0"><rect x="577" y="155" width="963" height="818"/></clipPath></defs><g clip-path="url(#clip0)" transform="translate(-577 -155)"><path d="M584 262.835C584 207.145 629.146 162 684.835 162L742.167 162 742.167 162 979.417 162 1432.16 162C1487.85 162 1533 207.145 1533 262.835L1533 514.917 1533 514.917 1533 666.167 1533 666.164C1533 721.854 1487.85 767 1432.16 767L979.417 767 637.505 954.471 742.167 767 684.835 767C629.146 767 584 721.854 584 666.164L584 666.167 584 514.917 584 514.917Z" stroke="#000000" stroke-width="13.75" stroke-miterlimit="8" fill="#FFFFFF" fill-rule="evenodd"/></g></svg>