<svg width="147" height="499" xmlns="http://www.w3.org/2000/svg" xmlns:xlink="http://www.w3.org/1999/xlink" overflow="hidden"><defs><clipPath id="clip0"><rect x="390" y="110" width="147" height="499"/></clipPath></defs><g clip-path="url(#clip0)" transform="translate(-390 -110)"><path d="M0 49.9 499 49.9 499 99.8 0 99.8M0 149.7 499 149.7 499 199.6 0 199.6M0 249.5 499 249.5 499 299.4 0 299.4M0 349.3 499 349.3 499 399.2 0 399.2M0 449.1 499 449.1 499 499 0 499M49.9 0 49.9 499 99.8 499 99.8 0M149.7 0 149.7 499 199.6 499 199.6 0M249.5 0 249.5 499 299.4 499 299.4 0M349.3 0 349.3 499 399.2 499 399.2 0M449.1 0 449.1 499 499 499 499 0" transform="matrix(1.00177 0 0 1 390 110)"/></g></svg>